<?xml version="1.0" encoding="utf-8"?>
<!-- Svg Vector Icons : http://www.onlinewebfonts.com/icon -->
<!DOCTYPE svg PUBLIC "-//W3C//DTD SVG 1.1//EN" "http://www.w3.org/Graphics/SVG/1.1/DTD/svg11.dtd">
<svg version="1.1" xmlns="http://www.w3.org/2000/svg" xmlns:xlink="http://www.w3.org/1999/xlink" x="0px" y="0px" viewBox="0 0 256 256" enable-background="new 0 0 256 256" xml:space="preserve">
<metadata> Svg Vector Icons : http://www.onlinewebfonts.com/icon </metadata>
<g><g><g><path fill="#000000" d="M31.6,49.9c-10.3,2.5-18,10.3-20.7,20.9C10,74.1,10,76.4,10,128.1c0,52,0,53.9,0.9,57.3c1.1,4.4,3.5,9,6.2,12.1c2.8,3.2,8,6.6,12.3,8l3.4,1.1H128h95.2l3.4-1.1c4.2-1.4,9.5-4.8,12.3-8c2.8-3.1,5.1-7.7,6.2-12.1c0.9-3.5,0.9-5.3,0.9-57.3c0-52,0-53.9-0.9-57.3c-2.4-9.5-8.9-16.7-18-20l-3.5-1.2l-94.7-0.1C50.4,49.3,33.7,49.4,31.6,49.9z M223.3,66.1c1.3,0.6,3.1,2,4,3c2.5,2.9,3,5.1,3,12.7v6.6H128H25.7v-6.6c0-7.6,0.5-9.8,3-12.7c0.9-1,2.6-2.4,4-3l2.4-1.2H128h92.9L223.3,66.1z M230.3,145.9c0,38.8,0.1,37.4-3,41c-0.9,1-2.6,2.4-4,3l-2.4,1.2H128H35.1l-2.4-1.2c-1.3-0.6-3.1-2-4-3c-3.1-3.6-3-2.3-3-41V111H128h102.3V145.9z"/><path fill="#000000" d="M178.8,138.5c-2.7,1-6.1,4.1-7.3,6.9c-1,2.2-1.1,2.8-1.1,11.6c0,10.4,0.4,12.2,2.9,15.3c0.9,1,2.7,2.4,4,3.1c2.5,1.4,2.5,1.4,11.3,1.5c10.7,0.2,12.7-0.2,16.2-3.4c4-3.5,4.4-5,4.6-15.1c0.2-9.8-0.2-12.2-2.8-15.6c-0.9-1.1-2.7-2.7-4.1-3.4l-2.5-1.4l-9.7-0.1C182.8,137.8,180.4,137.9,178.8,138.5z"/><path fill="#000000" d="M43,163.9c-0.6,0.7-0.8,1.9-0.8,6.2c0,5,0,5.4,1,6c0.9,0.6,3.9,0.7,23.2,0.7h22.3l1-1.2c0.9-1.2,1-1.8,0.8-6.2c-0.1-3.3-0.4-5.1-0.8-5.6c-0.6-0.7-2.8-0.8-23.3-0.8C45.1,163.1,43.7,163.1,43,163.9z"/></g></g></g>
</svg>